<svg width="286" height="58" viewBox="0 0 286 58" fill="none" xmlns="http://www.w3.org/2000/svg">
<path d="M89.6141 41.3414C83.8531 41.3414 79.6095 40.1141 76.8832 37.6596C74.1569 35.2085 72.7938 31.7083 72.7938 27.1591C72.7938 22.583 74.1569 18.9668 76.8832 16.3106C79.6095 13.6543 83.8531 12.3262 89.6141 12.3262C97.6689 12.3262 103.059 15.0985 105.786 20.6429C103.492 21.4331 100.803 22.6217 97.7175 24.2087C96.9797 22.7763 95.8145 21.7155 94.2216 21.0262C92.6288 20.337 91.0041 19.9923 89.3476 19.9923C86.8996 19.9923 85.0771 20.6362 83.8799 21.924C82.6828 23.2151 82.0842 24.8072 82.0842 26.7001C82.0842 28.7444 82.7281 30.4105 84.0158 31.6982C85.3001 32.9894 87.2685 33.6349 89.921 33.6349C92.0369 33.6349 93.7186 33.2836 94.9661 32.5808C96.2135 31.8781 97.1306 30.7601 97.7175 29.2269C99.8066 30.3533 102.483 31.6192 105.745 33.0247C104.471 36.1146 102.343 38.2732 99.3623 39.5005C96.3812 40.7277 93.1318 41.3414 89.6141 41.3414Z" fill="#0F0F0F"/>
<path d="M116.142 25.6259C116.119 27.1591 116.107 29.5094 116.107 32.6767C116.107 36.4862 116.132 39.2467 116.183 40.9581H107.159L107.199 36.6258C107.249 31.8714 107.274 28.2048 107.274 25.6259C107.274 23.1714 107.249 19.6965 107.199 15.2011L107.159 11.0604H116.183C116.132 14.6883 116.107 17.6522 116.107 19.952C116.107 22.5074 116.119 24.3987 116.142 25.6259Z" fill="#0F0F0F"/>
<path d="M129.869 41.3414C125.51 41.3414 122.304 40.3377 120.252 38.3304C118.203 36.3265 117.178 33.6888 117.178 30.4172C117.178 27.223 118.203 24.629 120.252 22.6351C122.304 20.6413 125.51 19.6443 129.869 19.6443C132.8 19.6443 135.253 20.1235 137.228 21.0817C139.203 22.04 140.662 23.3311 141.604 24.9551C142.546 26.5758 143.018 28.3965 143.018 30.4172C143.018 33.7123 141.928 36.3568 139.748 38.3506C137.572 40.3445 134.279 41.3414 129.869 41.3414ZM130.02 34.8252C131.677 34.8252 132.912 34.4285 133.727 33.635C134.545 32.8448 134.954 31.784 134.954 30.4525C134.954 29.2017 134.545 28.1746 133.727 27.371C132.912 26.564 131.677 26.1605 130.02 26.1605C128.364 26.1605 127.153 26.5573 126.388 27.3508C125.624 28.1409 125.242 29.1748 125.242 30.4525C125.242 31.784 125.624 32.8448 126.388 33.635C127.153 34.4285 128.364 34.8252 130.02 34.8252Z" fill="#0F0F0F"/>
<path d="M167.524 20.0276C167.346 23.2488 167.257 26.7237 167.257 30.4525C167.257 34.2116 167.346 37.7134 167.524 40.9581C165.891 40.8807 164.603 40.8421 163.661 40.8421C162.769 40.8421 161.483 40.8807 159.803 40.9581L158.691 35.3245C158.104 37.3688 157.187 38.8819 155.94 39.8636C154.692 40.8488 153.24 41.3414 151.584 41.3414C150.055 41.3414 148.728 41.0018 147.605 40.3226C146.485 39.6468 145.638 38.7339 145.065 37.584C144.491 36.4341 144.205 35.143 144.205 33.7106V28.193C144.205 24.7937 144.141 22.0719 144.014 20.0276H152.615C152.461 23.7834 152.383 27.5021 152.383 31.1838C152.383 32.3068 152.658 33.2012 153.208 33.867C153.755 34.5293 154.449 34.8605 155.291 34.8605C156.079 34.8605 156.773 34.5092 157.373 33.8064C157.973 33.1037 158.337 32.1404 158.465 30.9165V30.0339C158.515 28.0401 158.54 26.6598 158.54 25.8932C158.54 24.1314 158.488 22.1762 158.384 20.0276H167.524Z" fill="#0F0F0F"/>
<path d="M193.901 11.136C193.747 15.8903 193.67 20.8598 193.67 26.0445C193.67 31.1821 193.747 36.1533 193.901 40.9581H185.26L185.375 36.3584C184.637 38.0698 183.568 39.3273 182.166 40.1309C180.764 40.9379 179.108 41.3414 177.196 41.3414C175.54 41.3414 174.048 40.869 172.72 39.9242C171.395 38.976 170.364 37.6916 169.626 36.0709C168.885 34.4469 168.515 32.6649 168.515 30.7249C168.515 28.8083 168.885 26.9994 169.626 25.2981C170.364 23.6001 171.402 22.2333 172.74 21.1977C174.078 20.1621 175.6 19.6443 177.307 19.6443C179.296 19.6443 180.997 20.0596 182.413 20.8901C183.828 21.7206 184.879 23.005 185.566 24.7433C185.566 23.2874 185.516 20.9489 185.415 17.7278C185.311 14.6109 185.26 12.4137 185.26 11.136H193.901ZM181.21 34.9009C182.458 34.9009 183.477 34.5495 184.269 33.8468C185.057 33.144 185.451 32.0261 185.451 30.4929C185.451 29.1378 185.057 28.1409 184.269 27.5021C183.477 26.8632 182.483 26.5438 181.286 26.5438C180.139 26.5438 179.177 26.9086 178.399 27.6382C177.621 28.3645 177.232 29.316 177.232 30.4929C177.232 31.7974 177.589 32.8582 178.303 33.6753C179.017 34.4923 179.986 34.9009 181.21 34.9009Z" fill="#0F0F0F"/>
<path d="M207.623 41.3414C205.484 41.3414 203.311 41.0405 201.104 40.4386C198.901 39.8401 196.83 38.9272 194.892 37.7L198.906 32.2177C200.08 33.0617 201.495 33.719 203.151 34.1897C204.808 34.6638 206.235 34.9009 207.432 34.9009C208.579 34.9009 209.464 34.7412 210.088 34.4217C210.715 34.1023 211.028 33.6871 211.028 33.176C211.028 32.7658 210.874 32.4464 210.566 32.2177C210.26 31.9891 209.841 31.8748 209.308 31.8748C208.976 31.8748 208.599 31.8866 208.176 31.9101C207.757 31.937 207.42 31.9622 207.165 31.9857C205.841 32.1404 204.478 32.2177 203.076 32.2177C200.806 32.2177 198.965 31.789 197.553 30.9317C196.138 30.0776 195.43 28.6789 195.43 26.7355C195.43 24.4861 196.488 22.7427 198.604 21.5054C200.717 20.2647 203.825 19.6443 207.93 19.6443C209.942 19.6443 211.974 19.9318 214.026 20.5068C216.078 21.0817 217.894 21.9442 219.474 23.0941L215.077 27.5424C213.625 26.7758 212.269 26.2328 211.008 25.9134C209.747 25.594 208.48 25.4343 207.205 25.4343C206.313 25.4343 205.549 25.6125 204.912 25.9689C204.275 26.3286 203.956 26.7372 203.956 27.1944C203.956 27.5542 204.089 27.8366 204.353 28.0417C204.622 28.2435 204.972 28.3443 205.405 28.3443C205.841 28.3443 206.441 28.3074 207.205 28.2334C209.063 28.1056 210.451 28.0417 211.37 28.0417C214.019 28.0417 216.072 28.4889 217.527 29.3833C218.979 30.2777 219.705 31.6445 219.705 33.4837C219.705 36.2441 218.634 38.243 216.491 39.4803C214.351 40.721 211.395 41.3414 207.623 41.3414Z" fill="#0F0F0F"/>
<path d="M235.605 40.9581C235.759 37.2024 235.836 33.7392 235.836 30.5685C235.836 29.4455 235.563 28.5511 235.016 27.8854C234.466 27.223 233.771 26.8918 232.929 26.8918C232.09 26.8918 231.378 27.2684 230.791 28.0216C230.204 28.7747 229.861 29.8036 229.76 31.1082C229.706 33.0482 229.679 34.4268 229.679 35.2438C229.679 36.9821 229.731 38.8869 229.835 40.9581H220.696C220.9 37.2763 221.003 33.8014 221.003 30.5332C221.003 27.2617 220.9 23.7598 220.696 20.0277C222.379 20.105 223.667 20.1437 224.559 20.1437C225.501 20.1437 226.789 20.105 228.422 20.0277L229.529 25.6612C230.115 23.6169 231.033 22.1039 232.28 21.1221C233.531 20.1369 234.984 19.6443 236.641 19.6443C238.17 19.6443 239.495 19.9839 240.615 20.6631C241.735 21.339 242.581 22.2518 243.155 23.4017C243.728 24.5517 244.015 25.8428 244.015 27.2751V32.7927C244.015 36.192 244.079 38.9138 244.206 40.9581H235.605Z" fill="#0F0F0F"/>
<path d="M250.705 17.7681C249.102 17.7681 247.912 17.3714 247.134 16.5779C246.356 15.7877 245.967 14.7538 245.967 13.4761C245.967 12.222 246.356 11.1864 247.134 10.3694C247.912 9.55232 249.102 9.1438 250.705 9.1438C252.234 9.1438 253.408 9.55905 254.226 10.3895C255.041 11.22 255.448 12.2489 255.448 13.4761C255.448 14.7538 255.052 15.7877 254.261 16.5779C253.473 17.3714 252.288 17.7681 250.705 17.7681ZM246.273 40.9581C246.451 36.8426 246.54 33.4433 246.54 30.7601C246.54 27.5659 246.438 23.9884 246.233 20.0276H255.408C255.203 23.8371 255.101 27.4146 255.101 30.7601C255.101 33.571 255.192 36.9704 255.373 40.9581H246.273Z" fill="#0F0F0F"/>
<path d="M273.913 19.6443C275.57 19.6443 277.06 20.1168 278.385 21.0616C279.71 22.0097 280.741 23.2941 281.478 24.9148C282.219 26.5388 282.59 28.3208 282.59 30.2609C282.59 32.1774 282.219 33.9863 281.478 35.6877C280.741 37.3856 279.703 38.7524 278.365 39.788C277.027 40.8236 275.504 41.3414 273.798 41.3414C271.809 41.3414 270.107 40.9261 268.692 40.0957C267.277 39.2652 266.226 37.9808 265.538 36.2424C265.538 37.6983 265.59 40.0368 265.694 43.2579C265.795 46.3748 265.845 48.5721 265.845 49.8497H257.204C257.358 45.0954 257.435 40.1259 257.435 34.9412C257.435 29.7532 257.358 24.782 257.204 20.0277H264.547L265.654 24.819C266.368 23.0302 267.438 21.7206 268.863 20.8901C270.292 20.0596 271.975 19.6443 273.913 19.6443ZM269.819 34.4419C270.966 34.4419 271.928 34.0771 272.706 33.3475C273.484 32.6212 273.873 31.6697 273.873 30.4929C273.873 29.1883 273.516 28.1275 272.802 27.3104C272.087 26.4934 271.12 26.0849 269.899 26.0849C268.498 26.0849 267.44 26.4228 266.725 27.0986C266.011 27.7778 265.654 28.9092 265.654 30.4929C265.654 31.3872 265.884 32.1354 266.343 32.7372C266.803 33.3357 267.351 33.7694 267.988 34.0384C268.625 34.3074 269.235 34.4419 269.819 34.4419Z" fill="#0F0F0F"/>
<path d="M22.4422 38.6722C32.4603 48.7171 44.5626 52.8685 49.4734 47.9445C54.3843 43.0205 50.244 30.8858 40.2259 20.8408C30.2078 10.7958 18.1055 6.64446 13.1946 11.5685C8.28378 16.4925 12.424 28.6272 22.4422 38.6722Z" stroke="#0F0F0F" stroke-width="1.2649"/>
<path d="M31.334 17.1478C17.1662 17.1478 5.681 22.7929 5.681 29.7565C5.681 36.7201 17.1662 42.3652 31.334 42.3652C45.5018 42.3652 56.987 36.7201 56.987 29.7565C56.987 22.7929 45.5018 17.1478 31.334 17.1478Z" stroke="#0F0F0F" stroke-width="1.2649"/>
<path d="M40.2259 38.6722C50.244 28.6272 54.3843 16.4925 49.4734 11.5685C44.5626 6.64447 32.4603 10.7958 22.4421 20.8408C12.424 30.8858 8.28376 43.0205 13.1946 47.9445C18.1054 52.8685 30.2078 48.7171 40.2259 38.6722Z" stroke="#0F0F0F" stroke-width="1.2649"/>
<path d="M18.7591 29.7565C18.7591 43.9622 24.3891 55.4782 31.3341 55.4782C38.279 55.4782 43.9091 43.9622 43.9091 29.7565C43.9091 15.5507 38.279 4.03473 31.3341 4.03473C24.3891 4.03473 18.7591 15.5507 18.7591 29.7565Z" stroke="#0F0F0F" stroke-width="1.2649"/>
<path d="M31.3743 19.6696L32.7409 24.7574C32.9775 25.6368 33.44 26.4385 34.0823 27.0826C34.7247 27.7266 35.5242 28.1904 36.4013 28.4276L41.4755 29.7979L36.4013 31.1682C35.5242 31.4054 34.7247 31.8692 34.0823 32.5132C33.44 33.1572 32.9775 33.959 32.7409 34.8383L31.3743 39.9262L30.0076 34.8383C29.7711 33.959 29.3085 33.1572 28.6662 32.5132C28.0239 31.8692 27.2243 31.4054 26.3473 31.1682L21.274 29.7969L26.3483 28.4265C27.2253 28.1894 28.0249 27.7256 28.6672 27.0815C29.3095 26.4375 29.7721 25.6358 30.0086 24.7564L31.3743 19.6696Z" stroke="#0F0F0F" stroke-width="3.5"/>
</svg>
